<svg width="630" height="572" viewBox="0 0 630 572" fill="none" xmlns="http://www.w3.org/2000/svg">
    <path id="shadow" opacity="0.7" fill-rule="evenodd" clip-rule="evenodd"
        d="M435.273 520.811H194.487V533.415H143.143V558.625H194.487V571.229H435.273V558.625H486.617V533.415H435.273V520.811Z"
        fill="black" />
    <g id="bag">

        <rect x="120.292" y="76.3711" width="204.431" height="225.326" fill="#FFB200" />
        <rect x="120.292" y="309.797" width="204.431" height="156.323" fill="#FF9400" />
        <rect x="135.643" y="46.3711" width="15" height="15" fill="black" />
        <rect x="90.2915" y="165.623" width="15" height="30.5293" fill="black" />
        <rect x="90.2915" y="196.152" width="15" height="30.5293" fill="#D82416" />
        <rect x="120.292" y="76.3711" width="15" height="42.9514" fill="#D82416" />
        <rect x="120.292" y="272.907" width="15" height="15" fill="#D82416" />
        <rect x="120.292" y="302.21" width="15" height="57.9482" fill="#D82416" />
        <rect x="120.292" y="393.172" width="15.4595" height="57.9482" fill="#D82416" />
        <rect x="135.751" y="436.684" width="15" height="30" fill="#D82416" />
        <rect x="150.292" y="374.964" width="15" height="30" fill="#D82416" />
        <rect x="165.751" y="317.21" width="15" height="30" fill="#D82416" />
        <rect x="135.292" y="404.964" width="15" height="15" fill="#D82416" />
        <rect x="135.292" y="287.21" width="45.4541" height="15" fill="#D82416" />
        <rect x="135.292" y="317.21" width="30.4595" height="15" fill="#D82416" />
        <rect x="150.751" y="451.684" width="173.972" height="15" fill="#D82416" />
        <rect x="240.552" y="287.21" width="30" height="15" fill="#D82416" />
        <rect x="240.552" y="332.21" width="15" height="15" fill="#D82416" />
        <rect x="225.552" y="421.684" width="15" height="15" fill="#D82416" />
        <rect x="180.746" y="421.684" width="15" height="15" fill="#D82416" />
        <rect x="240.552" y="317.21" width="84.1709" height="15" fill="#D82416" />
        <rect x="285.353" y="287.907" width="39.3701" height="14.3032" fill="#D82416" />
        <rect x="195.552" y="257.907" width="30" height="15" fill="#D82416" />
        <rect x="195.552" y="436.684" width="30" height="15" fill="#D82416" />
        <rect x="195.552" y="331.106" width="30" height="44.8833" fill="#D82416" />
        <rect x="135.292" y="76.3711" width="15" height="15" fill="#D82416" />
        <rect x="225.435" y="15.665" width="29.8496" height="15.7061" fill="#D82416" />
        <rect x="75.2915" y="226.681" width="15" height="30.7939" fill="#D82416" />
        <rect x="60.2915" y="257.21" width="15" height="15" fill="#D82416" />
        <rect x="45.2915" y="272.21" width="15" height="15" fill="#D82416" />
        <rect x="30.2915" y="301.185" width="15" height="15" fill="#D82416" />
        <rect x="30.2915" y="376.029" width="15" height="15" fill="#D82416" />
        <rect x="90.0972" y="376.029" width="15.9214" height="15" fill="#D82416" />
        <rect x="15.2915" y="330.159" width="15" height="30" fill="#D82416" />
        <rect x="75.2915" y="196.152" width="15" height="30.5293" fill="black" />
        <rect x="60.2915" y="226.681" width="15" height="15" fill="black" />
        <rect x="75.2915" y="257.21" width="15" height="15" fill="black" />
        <rect x="45.2915" y="241.681" width="15" height="15.5293" fill="black" />
        <rect x="30.2915" y="257.21" width="15" height="15" fill="black" />
        <rect x="15.2915" y="272.21" width="15" height="28.9741" fill="black" />
        <rect x="15.2915" y="390.99" width="15" height="15" fill="black" />
        <rect x="90.0972" y="361.029" width="15.9214" height="15" fill="black" />
        <rect x="120.292" y="287.21" width="15" height="15" fill="black" />
        <rect x="135.292" y="302.21" width="45.4541" height="15" fill="black" />
        <rect x="240.552" y="302.21" width="84.1709" height="15" fill="black" />
        <rect x="180.746" y="272.907" width="15" height="148.777" fill="black" />
        <rect x="225.552" y="272.907" width="15" height="148.777" fill="black" />
        <rect x="195.552" y="272.907" width="30" height="14.3032" fill="black" />
        <rect x="195.552" y="375.99" width="30" height="15" fill="black" />
        <rect x="195.552" y="421.684" width="30" height="15" fill="black" />
        <rect x="195.552" y="316.185" width="30" height="15" fill="black" />
        <rect x="90.0972" y="390.99" width="15.9214" height="15" fill="black" />
        <rect x="0.291504" y="301.185" width="15" height="89.8054" fill="black" />
        <rect x="45.2915" y="287.21" width="15" height="28.9741" fill="black" />
        <rect x="30.2915" y="316.185" width="15" height="59.8442" fill="black" />
        <rect x="45.2915" y="376.029" width="44.8057" height="15" fill="black" />
        <rect x="30.2915" y="405.99" width="59.8057" height="15" fill="black" />
        <rect x="60.2915" y="272.21" width="15" height="15" fill="black" />
        <rect x="90.2915" y="226.681" width="15" height="30.5293" fill="black" />
        <rect x="180.518" y="46.3711" width="15" height="15" fill="black" />
        <rect x="210.435" y="15.665" width="15" height="45.7061" fill="black" />
        <rect x="150.643" y="31.3711" width="29.875" height="15" fill="black" />
        <rect x="135.751" y="466.684" width="188.972" height="15" fill="black" />
        <rect x="120.292" y="451.12" width="15.4595" height="15.5637" fill="black" />
        <rect x="120.292" y="61.3711" width="204.431" height="15" fill="black" />
        <rect x="225.435" y="31.0181" width="99.2876" height="15" fill="black" />
        <rect x="225.435" y="0.665039" width="99.2876" height="15" fill="black" />
        <rect x="105.292" y="451.12" width="374.749" height="15" transform="rotate(-90 105.292 451.12)" fill="black" />
        <rect x="60.1943" y="390.99" width="29.9028" height="15" fill="#D82416" />
        <rect x="30.3398" y="391.029" width="29.9028" height="15" fill="#FF9400" />
        <rect x="15.2915" y="360.159" width="15" height="30.8701" fill="#FF9400" />
        <rect x="15.2915" y="301.185" width="15" height="28.9741" fill="#FF9400" />
        <rect x="30.2915" y="272.21" width="15" height="28.9741" fill="#FF9400" />
        <rect x="45.2915" y="257.21" width="15" height="15" fill="#FF9400" />
        <rect x="60.2915" y="241.681" width="15" height="15.5293" fill="#FF9400" />
        <rect x="120.292" y="119.322" width="15" height="30" fill="#FF9400" />
        <rect x="120.292" y="242.907" width="15" height="30" fill="#FF9400" />
        <rect x="135.292" y="257.907" width="15" height="29.3032" fill="#FF9400" />
        <rect x="150.292" y="272.907" width="30.4541" height="14.3032" fill="#FF9400" />
        <rect x="180.751" y="257.907" width="15" height="15" fill="#FF9400" />
        <rect x="225.552" y="257.907" width="15" height="15" fill="#FF9400" />
        <rect x="270.353" y="287.21" width="15" height="15" fill="#FF9400" />
        <rect x="240.552" y="272.907" width="84.1709" height="15" fill="#FF9400" />
        <rect x="195.552" y="242.907" width="30" height="15" fill="#FF9400" />
        <rect x="150.292" y="76.3711" width="15" height="15" fill="#FF9400" />
        <rect x="150.751" y="46.3711" width="15" height="15" fill="#2454CE" />
        <rect x="195.751" y="316.185" width="15.554" height="29.8008" transform="rotate(-90 195.751 316.185)"
            fill="#2454CE" />
        <rect x="165.751" y="46.3711" width="14.7671" height="15" fill="#28A5FF" />
        <rect x="195.746" y="300.631" width="15" height="29.8062" transform="rotate(-90 195.746 300.631)"
            fill="#28A5FF" />
        <rect x="255.285" y="15.665" width="30" height="15.353" fill="#FF9400" />
        <rect x="285.285" y="15.665" width="39.438" height="15.353" fill="#FFB200" />
        <rect x="135.292" y="91.3711" width="15" height="15" fill="#FF9400" />
        <rect width="204.431" height="225.326" transform="matrix(-1 0 0 1 509.469 76.3711)" fill="#FFB200" />
        <rect width="204.431" height="156.323" transform="matrix(-1 0 0 1 509.469 309.797)" fill="#FF9400" />
        <rect width="15" height="15" transform="matrix(-1 0 0 1 494.117 46.3711)" fill="black" />
        <rect width="15" height="30.5293" transform="matrix(-1 0 0 1 539.469 165.623)" fill="black" />
        <rect width="15" height="30.5293" transform="matrix(-1 0 0 1 539.469 196.152)" fill="#D82416" />
        <rect width="15" height="42.9514" transform="matrix(-1 0 0 1 509.469 76.3711)" fill="#D82416" />
        <rect width="15" height="15" transform="matrix(-1 0 0 1 509.469 272.907)" fill="#D82416" />
        <rect width="15" height="57.9482" transform="matrix(-1 0 0 1 509.469 302.21)" fill="#D82416" />
        <rect width="15.4595" height="57.9482" transform="matrix(-1 0 0 1 509.469 393.172)" fill="#D82416" />
        <rect width="15" height="30" transform="matrix(-1 0 0 1 494.009 436.684)" fill="#D82416" />
        <rect width="15" height="30" transform="matrix(-1 0 0 1 479.469 374.964)" fill="#D82416" />
        <rect width="15" height="30" transform="matrix(-1 0 0 1 464.009 317.21)" fill="#D82416" />
        <rect width="15" height="15" transform="matrix(-1 0 0 1 494.469 404.964)" fill="#D82416" />
        <rect width="45.4541" height="15" transform="matrix(-1 0 0 1 494.469 287.21)" fill="#D82416" />
        <rect width="30.4595" height="15" transform="matrix(-1 0 0 1 494.469 317.21)" fill="#D82416" />
        <rect width="173.972" height="15" transform="matrix(-1 0 0 1 479.009 451.684)" fill="#D82416" />
        <rect width="30" height="15" transform="matrix(-1 0 0 1 389.208 287.21)" fill="#D82416" />
        <rect width="15" height="15" transform="matrix(-1 0 0 1 389.208 332.21)" fill="#D82416" />
        <rect width="15" height="15" transform="matrix(-1 0 0 1 404.208 421.684)" fill="#D82416" />
        <rect width="15" height="15" transform="matrix(-1 0 0 1 449.015 421.684)" fill="#D82416" />
        <rect width="84.1709" height="15" transform="matrix(-1 0 0 1 389.208 317.21)" fill="#D82416" />
        <rect width="39.3701" height="14.3032" transform="matrix(-1 0 0 1 344.408 287.907)" fill="#D82416" />
        <rect width="30" height="15" transform="matrix(-1 0 0 1 434.208 257.907)" fill="#D82416" />
        <rect width="30" height="15" transform="matrix(-1 0 0 1 434.208 436.684)" fill="#D82416" />
        <rect width="30" height="44.8833" transform="matrix(-1 0 0 1 434.208 331.106)" fill="#D82416" />
        <rect width="15" height="15" transform="matrix(-1 0 0 1 494.469 76.3711)" fill="#D82416" />
        <rect width="29.8496" height="15.7061" transform="matrix(-1 0 0 1 404.325 15.665)" fill="#D82416" />
        <rect width="15" height="30.7939" transform="matrix(-1 0 0 1 554.469 226.681)" fill="#D82416" />
        <rect width="15" height="15" transform="matrix(-1 0 0 1 569.469 257.21)" fill="#D82416" />
        <rect width="15" height="15" transform="matrix(-1 0 0 1 584.469 272.21)" fill="#D82416" />
        <rect width="15" height="15" transform="matrix(-1 0 0 1 599.469 301.185)" fill="#D82416" />
        <rect width="15" height="15" transform="matrix(-1 0 0 1 599.469 376.029)" fill="#D82416" />
        <rect width="15.9214" height="15" transform="matrix(-1 0 0 1 539.663 376.029)" fill="#D82416" />
        <rect width="15" height="30" transform="matrix(-1 0 0 1 614.469 330.159)" fill="#D82416" />
        <rect width="15" height="30.5293" transform="matrix(-1 0 0 1 554.469 196.152)" fill="black" />
        <rect width="15" height="15" transform="matrix(-1 0 0 1 569.469 226.681)" fill="black" />
        <rect width="15" height="15" transform="matrix(-1 0 0 1 554.469 257.21)" fill="black" />
        <rect width="15" height="15.5293" transform="matrix(-1 0 0 1 584.469 241.681)" fill="black" />
        <rect width="15" height="15" transform="matrix(-1 0 0 1 599.469 257.21)" fill="black" />
        <rect width="15" height="28.9741" transform="matrix(-1 0 0 1 614.469 272.21)" fill="black" />
        <rect width="15" height="15" transform="matrix(-1 0 0 1 614.469 390.99)" fill="black" />
        <rect width="15.9214" height="15" transform="matrix(-1 0 0 1 539.663 361.029)" fill="black" />
        <rect width="15" height="15" transform="matrix(-1 0 0 1 509.469 287.21)" fill="black" />
        <rect width="45.4541" height="15" transform="matrix(-1 0 0 1 494.469 302.21)" fill="black" />
        <rect width="84.1709" height="15" transform="matrix(-1 0 0 1 389.208 302.21)" fill="black" />
        <rect width="15" height="148.777" transform="matrix(-1 0 0 1 449.015 272.907)" fill="black" />
        <rect width="15" height="148.777" transform="matrix(-1 0 0 1 404.208 272.907)" fill="black" />
        <rect width="30" height="14.3032" transform="matrix(-1 0 0 1 434.208 272.907)" fill="black" />
        <rect width="30" height="15" transform="matrix(-1 0 0 1 434.208 375.99)" fill="black" />
        <rect width="30" height="15" transform="matrix(-1 0 0 1 434.208 421.684)" fill="black" />
        <rect width="30" height="15" transform="matrix(-1 0 0 1 434.208 316.185)" fill="black" />
        <rect width="15.9214" height="15" transform="matrix(-1 0 0 1 539.663 390.99)" fill="black" />
        <rect width="15" height="89.8054" transform="matrix(-1 0 0 1 629.469 301.185)" fill="black" />
        <rect width="15" height="28.9741" transform="matrix(-1 0 0 1 584.469 287.21)" fill="black" />
        <rect width="15" height="59.8442" transform="matrix(-1 0 0 1 599.469 316.185)" fill="black" />
        <rect width="44.8057" height="15" transform="matrix(-1 0 0 1 584.469 376.029)" fill="black" />
        <rect width="59.8057" height="15" transform="matrix(-1 0 0 1 599.469 405.99)" fill="black" />
        <rect width="15" height="15" transform="matrix(-1 0 0 1 569.469 272.21)" fill="black" />
        <rect width="15" height="30.5293" transform="matrix(-1 0 0 1 539.469 226.681)" fill="black" />
        <rect width="15" height="15" transform="matrix(-1 0 0 1 449.242 46.3711)" fill="black" />
        <rect width="15" height="45.7061" transform="matrix(-1 0 0 1 419.325 15.665)" fill="black" />
        <rect width="29.875" height="15" transform="matrix(-1 0 0 1 479.117 31.3711)" fill="black" />
        <rect width="188.972" height="15" transform="matrix(-1 0 0 1 494.009 466.684)" fill="black" />
        <rect width="15.4595" height="15.5637" transform="matrix(-1 0 0 1 509.469 451.12)" fill="black" />
        <rect width="204.431" height="15" transform="matrix(-1 0 0 1 509.469 61.3711)" fill="black" />
        <rect width="99.2876" height="15" transform="matrix(-1 0 0 1 404.325 31.0181)" fill="black" />
        <rect width="99.2876" height="15" transform="matrix(-1 0 0 1 404.325 0.665039)" fill="black" />
        <rect width="374.749" height="15" transform="matrix(4.37114e-08 -1 -1 -4.37114e-08 524.469 451.12)"
            fill="black" />
        <rect width="29.9028" height="15" transform="matrix(-1 0 0 1 569.566 390.99)" fill="#D82416" />
        <rect width="29.9028" height="15" transform="matrix(-1 0 0 1 599.42 391.029)" fill="#FF9400" />
        <rect width="15" height="30.8701" transform="matrix(-1 0 0 1 614.469 360.159)" fill="#FF9400" />
        <rect width="15" height="28.9741" transform="matrix(-1 0 0 1 614.469 301.185)" fill="#FF9400" />
        <rect width="15" height="28.9741" transform="matrix(-1 0 0 1 599.469 272.21)" fill="#FF9400" />
        <rect width="15" height="15" transform="matrix(-1 0 0 1 584.469 257.21)" fill="#FF9400" />
        <rect width="15" height="15.5293" transform="matrix(-1 0 0 1 569.469 241.681)" fill="#FF9400" />
        <rect width="15" height="30" transform="matrix(-1 0 0 1 509.469 119.322)" fill="#FF9400" />
        <rect width="15" height="30" transform="matrix(-1 0 0 1 509.469 242.907)" fill="#FF9400" />
        <rect width="15" height="29.3032" transform="matrix(-1 0 0 1 494.469 257.907)" fill="#FF9400" />
        <rect width="30.4541" height="14.3032" transform="matrix(-1 0 0 1 479.469 272.907)" fill="#FF9400" />
        <rect width="15" height="15" transform="matrix(-1 0 0 1 449.009 257.907)" fill="#FF9400" />
        <rect width="15" height="15" transform="matrix(-1 0 0 1 404.208 257.907)" fill="#FF9400" />
        <rect width="15" height="15" transform="matrix(-1 0 0 1 359.408 287.21)" fill="#FF9400" />
        <rect width="84.1709" height="15" transform="matrix(-1 0 0 1 389.208 272.907)" fill="#FF9400" />
        <rect width="30" height="15" transform="matrix(-1 0 0 1 434.208 242.907)" fill="#FF9400" />
        <rect width="15" height="15" transform="matrix(-1 0 0 1 479.469 76.3711)" fill="#FF9400" />
        <rect width="15" height="15" transform="matrix(-1 0 0 1 479.009 46.3711)" fill="#2454CE" />
        <rect width="15.554" height="29.8008" transform="matrix(4.37114e-08 -1 -1 -4.37114e-08 434.009 316.185)"
            fill="#2454CE" />
        <rect width="14.7671" height="15" transform="matrix(-1 0 0 1 464.009 46.3711)" fill="#28A5FF" />
        <rect width="15" height="29.8062" transform="matrix(4.37114e-08 -1 -1 -4.37114e-08 434.015 300.631)"
            fill="#28A5FF" />
        <rect width="30" height="15.353" transform="matrix(-1 0 0 1 374.476 15.665)" fill="#FF9400" />
        <rect width="39.438" height="15.353" transform="matrix(-1 0 0 1 344.476 15.665)" fill="#FFB200" />
        <rect width="15" height="15" transform="matrix(-1 0 0 1 494.469 91.3711)" fill="#FF9400" />
        <rect x="311.298" y="112.871" width="15" height="120" fill="black" />
        <rect x="296.298" y="132.871" width="15" height="80" fill="black" />
        <rect x="326.304" y="132.871" width="15" height="80" fill="black" />
        <rect x="258.126" y="165.371" width="120" height="15" fill="black" />
        <rect x="278.996" y="150.371" width="80" height="15" fill="black" />
        <rect x="278.996" y="180.371" width="80" height="15" fill="black" />
        <rect x="311.298" y="165.371" width="15" height="15" fill="white" />
    </g>
    <style type="text/css">
        svg {
            overflow: visible;
        }

        #shadow {
            transform-origin: center;
        }

        #bag {

            /* animation: float 5s ease-in-out infinite; */
        }

        #shadow {
            animation: shadow-expand 5s ease-in-out infinite;
        }

        @keyframes float {
            0% {
                /* box-shadow: 0 5px 15px 0px rgba(0, 0, 0, 0.6); */
                transform: translatey(0px);
            }

            50% {
                /* box-shadow: 0 25px 15px 0px rgba(0, 0, 0, 0.2); */
                transform: translatey(-150px);
            }

            100% {
                /* box-shadow: 0 5px 15px 0px rgba(0, 0, 0, 0.6); */
                transform: translatey(0px);
            }
        }

        @keyframes shadow-expand {
            0% {
                opacity: 0.7;
                transform: scaleX(1);
            }

            50% {
                opacity: 0.5;
                transform: scaleX(0.7);
            }

            100% {
                opacity: 0.7;
                transform: scaleX(1);
            }
        }
    </style>
</svg>