<svg width="631" height="868" viewBox="0 0 631 868" fill="none" xmlns="http://www.w3.org/2000/svg">
    <path id="shadow" opacity="0.7" fill-rule="evenodd" clip-rule="evenodd"
        d="M436.179 809.561H195.393V822.166H144.049V847.375H195.393V859.979H436.179V847.375H487.523V822.166H436.179V809.561Z"
        fill="black" />
    <g id="bag">
        <rect x="121.197" y="365.121" width="204.431" height="225.326" fill="#FFB200" />
        <rect x="121.197" y="598.547" width="204.431" height="156.323" fill="#FF9400" />
        <rect x="136.549" y="335.121" width="15" height="15" fill="black" />
        <rect x="91.1973" y="454.373" width="15" height="30.5293" fill="black" />
        <rect x="91.1973" y="484.902" width="15" height="30.5293" fill="#D82416" />
        <rect x="121.197" y="365.121" width="15" height="42.9514" fill="#D82416" />
        <rect x="121.197" y="561.657" width="15" height="15" fill="#D82416" />
        <rect x="121.197" y="590.96" width="15" height="57.9482" fill="#D82416" />
        <rect x="121.197" y="681.922" width="15.4595" height="57.9482" fill="#D82416" />
        <rect x="136.656" y="725.434" width="15" height="30" fill="#D82416" />
        <rect x="151.197" y="663.714" width="15" height="30" fill="#D82416" />
        <rect x="166.656" y="605.96" width="15" height="30" fill="#D82416" />
        <rect x="136.197" y="693.714" width="15" height="15" fill="#D82416" />
        <rect x="136.197" y="575.96" width="45.4541" height="15" fill="#D82416" />
        <rect x="136.197" y="605.96" width="30.4595" height="15" fill="#D82416" />
        <rect x="151.656" y="740.434" width="173.972" height="15" fill="#D82416" />
        <rect x="241.457" y="575.96" width="30" height="15" fill="#D82416" />
        <rect x="241.457" y="620.96" width="15" height="15" fill="#D82416" />
        <rect x="226.457" y="710.434" width="15" height="15" fill="#D82416" />
        <rect x="181.651" y="710.434" width="15" height="15" fill="#D82416" />
        <rect x="241.457" y="605.96" width="84.1709" height="15" fill="#D82416" />
        <rect x="286.258" y="576.657" width="39.3701" height="14.3032" fill="#D82416" />
        <rect x="196.457" y="546.657" width="30" height="15" fill="#D82416" />
        <rect x="196.457" y="725.434" width="30" height="15" fill="#D82416" />
        <rect x="196.457" y="619.856" width="30" height="44.8833" fill="#D82416" />
        <rect x="136.197" y="365.121" width="15" height="15" fill="#D82416" />
        <rect x="226.341" y="304.415" width="29.8496" height="15.7061" fill="#D82416" />
        <rect x="76.1973" y="515.431" width="15" height="30.7939" fill="#D82416" />
        <rect x="61.1973" y="545.96" width="15" height="15" fill="#D82416" />
        <rect x="46.1973" y="560.96" width="15" height="15" fill="#D82416" />
        <rect x="31.1973" y="589.935" width="15" height="15" fill="#D82416" />
        <rect x="31.1973" y="664.779" width="15" height="15" fill="#D82416" />
        <rect x="91.0029" y="664.779" width="15.9214" height="15" fill="#D82416" />
        <rect x="16.1973" y="618.909" width="15" height="30" fill="#D82416" />
        <rect x="76.1973" y="484.902" width="15" height="30.5293" fill="black" />
        <rect x="61.1973" y="515.431" width="15" height="15" fill="black" />
        <rect x="76.1973" y="545.96" width="15" height="15" fill="black" />
        <rect x="46.1973" y="530.431" width="15" height="15.5293" fill="black" />
        <rect x="31.1973" y="545.96" width="15" height="15" fill="black" />
        <rect x="16.1973" y="560.96" width="15" height="28.9741" fill="black" />
        <rect x="16.1973" y="679.74" width="15" height="15" fill="black" />
        <rect x="91.0029" y="649.779" width="15.9214" height="15" fill="black" />
        <rect x="121.197" y="575.96" width="15" height="15" fill="black" />
        <rect x="136.197" y="590.96" width="45.4541" height="15" fill="black" />
        <rect x="241.457" y="590.96" width="84.1709" height="15" fill="black" />
        <rect x="181.651" y="561.657" width="15" height="148.777" fill="black" />
        <rect x="226.457" y="561.657" width="15" height="148.777" fill="black" />
        <rect x="196.457" y="561.657" width="30" height="14.3032" fill="black" />
        <rect x="196.457" y="664.74" width="30" height="15" fill="black" />
        <rect x="196.457" y="710.434" width="30" height="15" fill="black" />
        <rect x="196.457" y="604.935" width="30" height="15" fill="black" />
        <rect x="91.0029" y="679.74" width="15.9214" height="15" fill="black" />
        <rect x="1.19727" y="589.935" width="15" height="89.8054" fill="black" />
        <rect x="46.1973" y="575.96" width="15" height="28.9741" fill="black" />
        <rect x="31.1973" y="604.935" width="15" height="59.8442" fill="black" />
        <rect x="46.1973" y="664.779" width="44.8057" height="15" fill="black" />
        <rect x="31.1973" y="694.74" width="59.8057" height="15" fill="black" />
        <rect x="61.1973" y="560.96" width="15" height="15" fill="black" />
        <rect x="91.1973" y="515.431" width="15" height="30.5293" fill="black" />
        <rect x="181.424" y="335.121" width="15" height="15" fill="black" />
        <rect x="211.341" y="304.415" width="15" height="45.7061" fill="black" />
        <rect x="151.549" y="320.121" width="29.875" height="15" fill="black" />
        <rect x="136.656" y="755.434" width="188.972" height="15" fill="black" />
        <rect x="121.197" y="739.87" width="15.4595" height="15.5637" fill="black" />
        <rect x="121.197" y="350.121" width="204.431" height="15" fill="black" />
        <rect x="226.341" y="319.768" width="99.2876" height="15" fill="black" />
        <rect x="226.341" y="289.415" width="99.2876" height="15" fill="black" />
        <rect x="106.197" y="739.87" width="374.749" height="15" transform="rotate(-90 106.197 739.87)" fill="black" />
        <rect x="61.0996" y="679.74" width="29.9028" height="15" fill="#D82416" />
        <rect x="31.2461" y="679.779" width="29.9028" height="15" fill="#FF9400" />
        <rect x="16.1973" y="648.909" width="15" height="30.8701" fill="#FF9400" />
        <rect x="16.1973" y="589.935" width="15" height="28.9741" fill="#FF9400" />
        <rect x="31.1973" y="560.96" width="15" height="28.9741" fill="#FF9400" />
        <rect x="46.1973" y="545.96" width="15" height="15" fill="#FF9400" />
        <rect x="61.1973" y="530.431" width="15" height="15.5293" fill="#FF9400" />
        <rect x="121.197" y="408.072" width="15" height="30" fill="#FF9400" />
        <rect x="121.197" y="531.657" width="15" height="30" fill="#FF9400" />
        <rect x="136.197" y="546.657" width="15" height="29.3032" fill="#FF9400" />
        <rect x="151.197" y="561.657" width="30.4541" height="14.3032" fill="#FF9400" />
        <rect x="181.656" y="546.657" width="15" height="15" fill="#FF9400" />
        <rect x="226.457" y="546.657" width="15" height="15" fill="#FF9400" />
        <rect x="271.258" y="575.96" width="15" height="15" fill="#FF9400" />
        <rect x="241.457" y="561.657" width="84.1709" height="15" fill="#FF9400" />
        <rect x="196.457" y="531.657" width="30" height="15" fill="#FF9400" />
        <rect x="151.197" y="365.121" width="15" height="15" fill="#FF9400" />
        <rect x="151.656" y="335.121" width="15" height="15" fill="#2454CE" />
        <rect x="196.656" y="604.935" width="15.554" height="29.8008" transform="rotate(-90 196.656 604.935)"
            fill="#2454CE" />
        <rect x="166.656" y="335.121" width="14.7671" height="15" fill="#28A5FF" />
        <rect x="196.651" y="589.381" width="15" height="29.8062" transform="rotate(-90 196.651 589.381)"
            fill="#28A5FF" />
        <rect x="256.19" y="304.415" width="30" height="15.353" fill="#FF9400" />
        <rect x="286.19" y="304.415" width="39.438" height="15.353" fill="#FFB200" />
        <rect x="136.197" y="380.121" width="15" height="15" fill="#FF9400" />
        <rect width="204.431" height="225.326" transform="matrix(-1 0 0 1 510.375 365.121)" fill="#FFB200" />
        <rect width="204.431" height="156.323" transform="matrix(-1 0 0 1 510.375 598.547)" fill="#FF9400" />
        <rect width="15" height="15" transform="matrix(-1 0 0 1 495.023 335.121)" fill="black" />
        <rect width="15" height="30.5293" transform="matrix(-1 0 0 1 540.375 454.373)" fill="black" />
        <rect width="15" height="30.5293" transform="matrix(-1 0 0 1 540.375 484.902)" fill="#D82416" />
        <rect width="15" height="42.9514" transform="matrix(-1 0 0 1 510.375 365.121)" fill="#D82416" />
        <rect width="15" height="15" transform="matrix(-1 0 0 1 510.375 561.657)" fill="#D82416" />
        <rect width="15" height="57.9482" transform="matrix(-1 0 0 1 510.375 590.96)" fill="#D82416" />
        <rect width="15.4595" height="57.9482" transform="matrix(-1 0 0 1 510.375 681.922)" fill="#D82416" />
        <rect width="15" height="30" transform="matrix(-1 0 0 1 494.916 725.434)" fill="#D82416" />
        <rect width="15" height="30" transform="matrix(-1 0 0 1 480.375 663.714)" fill="#D82416" />
        <rect width="15" height="30" transform="matrix(-1 0 0 1 464.916 605.96)" fill="#D82416" />
        <rect width="15" height="15" transform="matrix(-1 0 0 1 495.375 693.714)" fill="#D82416" />
        <rect width="45.4541" height="15" transform="matrix(-1 0 0 1 495.375 575.96)" fill="#D82416" />
        <rect width="30.4595" height="15" transform="matrix(-1 0 0 1 495.375 605.96)" fill="#D82416" />
        <rect width="173.972" height="15" transform="matrix(-1 0 0 1 479.916 740.434)" fill="#D82416" />
        <rect width="30" height="15" transform="matrix(-1 0 0 1 390.115 575.96)" fill="#D82416" />
        <rect width="15" height="15" transform="matrix(-1 0 0 1 390.115 620.96)" fill="#D82416" />
        <rect width="15" height="15" transform="matrix(-1 0 0 1 405.115 710.434)" fill="#D82416" />
        <rect width="15" height="15" transform="matrix(-1 0 0 1 449.921 710.434)" fill="#D82416" />
        <rect width="84.1709" height="15" transform="matrix(-1 0 0 1 390.115 605.96)" fill="#D82416" />
        <rect width="39.3701" height="14.3032" transform="matrix(-1 0 0 1 345.314 576.657)" fill="#D82416" />
        <rect width="30" height="15" transform="matrix(-1 0 0 1 435.115 546.657)" fill="#D82416" />
        <rect width="30" height="15" transform="matrix(-1 0 0 1 435.115 725.434)" fill="#D82416" />
        <rect width="30" height="44.8833" transform="matrix(-1 0 0 1 435.115 619.856)" fill="#D82416" />
        <rect width="15" height="15" transform="matrix(-1 0 0 1 495.375 365.121)" fill="#D82416" />
        <rect width="29.8496" height="15.7061" transform="matrix(-1 0 0 1 405.231 304.415)" fill="#D82416" />
        <rect width="15" height="30.7939" transform="matrix(-1 0 0 1 555.375 515.431)" fill="#D82416" />
        <rect width="15" height="15" transform="matrix(-1 0 0 1 570.375 545.96)" fill="#D82416" />
        <rect width="15" height="15" transform="matrix(-1 0 0 1 585.375 560.96)" fill="#D82416" />
        <rect width="15" height="15" transform="matrix(-1 0 0 1 600.375 589.935)" fill="#D82416" />
        <rect width="15" height="15" transform="matrix(-1 0 0 1 600.375 664.779)" fill="#D82416" />
        <rect width="15.9214" height="15" transform="matrix(-1 0 0 1 540.569 664.779)" fill="#D82416" />
        <rect width="15" height="30" transform="matrix(-1 0 0 1 615.375 618.909)" fill="#D82416" />
        <rect width="15" height="30.5293" transform="matrix(-1 0 0 1 555.375 484.902)" fill="black" />
        <rect width="15" height="15" transform="matrix(-1 0 0 1 570.375 515.431)" fill="black" />
        <rect width="15" height="15" transform="matrix(-1 0 0 1 555.375 545.96)" fill="black" />
        <rect width="15" height="15.5293" transform="matrix(-1 0 0 1 585.375 530.431)" fill="black" />
        <rect width="15" height="15" transform="matrix(-1 0 0 1 600.375 545.96)" fill="black" />
        <rect width="15" height="28.9741" transform="matrix(-1 0 0 1 615.375 560.96)" fill="black" />
        <rect width="15" height="15" transform="matrix(-1 0 0 1 615.375 679.74)" fill="black" />
        <rect width="15.9214" height="15" transform="matrix(-1 0 0 1 540.569 649.779)" fill="black" />
        <rect width="15" height="15" transform="matrix(-1 0 0 1 510.375 575.96)" fill="black" />
        <rect width="45.4541" height="15" transform="matrix(-1 0 0 1 495.375 590.96)" fill="black" />
        <rect width="84.1709" height="15" transform="matrix(-1 0 0 1 390.115 590.96)" fill="black" />
        <rect width="15" height="148.777" transform="matrix(-1 0 0 1 449.921 561.657)" fill="black" />
        <rect width="15" height="148.777" transform="matrix(-1 0 0 1 405.115 561.657)" fill="black" />
        <rect width="30" height="14.3032" transform="matrix(-1 0 0 1 435.115 561.657)" fill="black" />
        <rect width="30" height="15" transform="matrix(-1 0 0 1 435.115 664.74)" fill="black" />
        <rect width="30" height="15" transform="matrix(-1 0 0 1 435.115 710.434)" fill="black" />
        <rect width="30" height="15" transform="matrix(-1 0 0 1 435.115 604.935)" fill="black" />
        <rect width="15.9214" height="15" transform="matrix(-1 0 0 1 540.569 679.74)" fill="black" />
        <rect width="15" height="89.8054" transform="matrix(-1 0 0 1 630.375 589.935)" fill="black" />
        <rect width="15" height="28.9741" transform="matrix(-1 0 0 1 585.375 575.96)" fill="black" />
        <rect width="15" height="59.8442" transform="matrix(-1 0 0 1 600.375 604.935)" fill="black" />
        <rect width="44.8057" height="15" transform="matrix(-1 0 0 1 585.375 664.779)" fill="black" />
        <rect width="59.8057" height="15" transform="matrix(-1 0 0 1 600.375 694.74)" fill="black" />
        <rect width="15" height="15" transform="matrix(-1 0 0 1 570.375 560.96)" fill="black" />
        <rect width="15" height="30.5293" transform="matrix(-1 0 0 1 540.375 515.431)" fill="black" />
        <rect width="15" height="15" transform="matrix(-1 0 0 1 450.148 335.121)" fill="black" />
        <rect width="15" height="45.7061" transform="matrix(-1 0 0 1 420.231 304.415)" fill="black" />
        <rect width="29.875" height="15" transform="matrix(-1 0 0 1 480.023 320.121)" fill="black" />
        <rect width="188.972" height="15" transform="matrix(-1 0 0 1 494.916 755.434)" fill="black" />
        <rect width="15.4595" height="15.5637" transform="matrix(-1 0 0 1 510.375 739.87)" fill="black" />
        <rect width="204.431" height="15" transform="matrix(-1 0 0 1 510.375 350.121)" fill="black" />
        <rect width="99.2876" height="15" transform="matrix(-1 0 0 1 405.231 319.768)" fill="black" />
        <rect width="99.2876" height="15" transform="matrix(-1 0 0 1 405.231 289.415)" fill="black" />
        <rect width="374.749" height="15" transform="matrix(4.37114e-08 -1 -1 -4.37114e-08 525.375 739.87)"
            fill="black" />
        <rect width="29.9028" height="15" transform="matrix(-1 0 0 1 570.473 679.74)" fill="#D82416" />
        <rect width="29.9028" height="15" transform="matrix(-1 0 0 1 600.326 679.779)" fill="#FF9400" />
        <rect width="15" height="30.8701" transform="matrix(-1 0 0 1 615.375 648.909)" fill="#FF9400" />
        <rect width="15" height="28.9741" transform="matrix(-1 0 0 1 615.375 589.935)" fill="#FF9400" />
        <rect width="15" height="28.9741" transform="matrix(-1 0 0 1 600.375 560.96)" fill="#FF9400" />
        <rect width="15" height="15" transform="matrix(-1 0 0 1 585.375 545.96)" fill="#FF9400" />
        <rect width="15" height="15.5293" transform="matrix(-1 0 0 1 570.375 530.431)" fill="#FF9400" />
        <rect width="15" height="30" transform="matrix(-1 0 0 1 510.375 408.072)" fill="#FF9400" />
        <rect width="15" height="30" transform="matrix(-1 0 0 1 510.375 531.657)" fill="#FF9400" />
        <rect width="15" height="29.3032" transform="matrix(-1 0 0 1 495.375 546.657)" fill="#FF9400" />
        <rect width="30.4541" height="14.3032" transform="matrix(-1 0 0 1 480.375 561.657)" fill="#FF9400" />
        <rect width="15" height="15" transform="matrix(-1 0 0 1 449.916 546.657)" fill="#FF9400" />
        <rect width="15" height="15" transform="matrix(-1 0 0 1 405.115 546.657)" fill="#FF9400" />
        <rect width="15" height="15" transform="matrix(-1 0 0 1 360.314 575.96)" fill="#FF9400" />
        <rect width="84.1709" height="15" transform="matrix(-1 0 0 1 390.115 561.657)" fill="#FF9400" />
        <rect width="30" height="15" transform="matrix(-1 0 0 1 435.115 531.657)" fill="#FF9400" />
        <rect width="15" height="15" transform="matrix(-1 0 0 1 480.375 365.121)" fill="#FF9400" />
        <rect width="15" height="15" transform="matrix(-1 0 0 1 479.916 335.121)" fill="#2454CE" />
        <rect width="15.554" height="29.8008" transform="matrix(4.37114e-08 -1 -1 -4.37114e-08 434.916 604.935)"
            fill="#2454CE" />
        <rect width="14.7671" height="15" transform="matrix(-1 0 0 1 464.916 335.121)" fill="#28A5FF" />
        <rect width="15" height="29.8062" transform="matrix(4.37114e-08 -1 -1 -4.37114e-08 434.921 589.381)"
            fill="#28A5FF" />
        <rect width="30" height="15.353" transform="matrix(-1 0 0 1 375.382 304.415)" fill="#FF9400" />
        <rect width="39.438" height="15.353" transform="matrix(-1 0 0 1 345.382 304.415)" fill="#FFB200" />
        <rect width="15" height="15" transform="matrix(-1 0 0 1 495.375 380.121)" fill="#FF9400" />
        <rect x="312.203" y="401.621" width="15" height="120" fill="black" />
        <rect x="297.203" y="421.621" width="15" height="80" fill="black" />
        <rect x="327.209" y="421.621" width="15" height="80" fill="black" />
        <rect x="259.031" y="454.121" width="120" height="15" fill="black" />
        <rect x="279.901" y="439.121" width="80" height="15" fill="black" />
        <rect x="279.901" y="469.121" width="80" height="15" fill="black" />
        <rect x="312.203" y="454.121" width="15" height="15" fill="white" />
    </g>
    <style type="text/css">
        /* path,
        circle,
        polygon {
            fill: #fff;
        } */
        #shadow {
            transform-origin: center;
        }

        #bag {

            animation: float 5s ease-in-out infinite;
        }

        #shadow {
            animation: shadow-expand 5s ease-in-out infinite;
        }

        @keyframes float {
            0% {
                /* box-shadow: 0 5px 15px 0px rgba(0, 0, 0, 0.6); */
                transform: translatey(0px);
            }

            50% {
                /* box-shadow: 0 25px 15px 0px rgba(0, 0, 0, 0.2); */
                transform: translatey(-150px);
            }

            100% {
                /* box-shadow: 0 5px 15px 0px rgba(0, 0, 0, 0.6); */
                transform: translatey(0px);
            }
        }

        @keyframes shadow-expand {
            0% {
                opacity: 0.7;
                transform: scaleX(1);
            }

            50% {
                opacity: 0.5;
                transform: scaleX(0.7);
            }

            100% {
                opacity: 0.7;
                transform: scaleX(1);
            }
        }
    </style>
</svg>