<svg width="59" height="46" viewBox="0 0 59 46" fill="none" xmlns="http://www.w3.org/2000/svg">
<g clip-path="url(#clip0_401_3240)">
<path d="M49.1851 4.56342C45.5629 2.90141 41.6786 1.67692 37.6174 0.975598C37.5435 0.962063 37.4696 0.995888 37.4315 1.06354C36.9319 1.95203 36.3786 3.11113 35.9911 4.02217C31.623 3.36822 27.2773 3.36822 22.9988 4.02217C22.6112 3.09088 22.0378 1.95203 21.536 1.06354C21.4979 0.998145 21.424 0.96432 21.3501 0.975598C17.2911 1.67468 13.4068 2.89917 9.78243 4.56342C9.75105 4.57695 9.72416 4.59952 9.70631 4.62882C2.33872 15.6358 0.32043 26.3723 1.31054 36.9757C1.31502 37.0275 1.34414 37.0772 1.38446 37.1087C6.24538 40.6784 10.954 42.8456 15.5752 44.2821C15.6492 44.3046 15.7275 44.2776 15.7746 44.2167C16.8677 42.7239 17.8422 41.1498 18.6777 39.4945C18.727 39.3976 18.6799 39.2826 18.5791 39.2442C17.0335 38.6579 15.5618 37.9431 14.146 37.1313C14.0341 37.0659 14.0251 36.9057 14.1281 36.829C14.426 36.6058 14.724 36.3735 15.0085 36.139C15.06 36.0962 15.1317 36.0871 15.1922 36.1142C24.4929 40.3605 34.5619 40.3605 43.7529 36.1142C43.8134 36.0849 43.8851 36.0939 43.9388 36.1367C44.2234 36.3713 44.5213 36.6058 44.8214 36.829C44.9245 36.9057 44.9177 37.0659 44.8057 37.1313C43.39 37.9588 41.9183 38.6579 40.3704 39.242C40.2696 39.2803 40.2248 39.3976 40.2741 39.4945C41.1275 41.1475 42.102 42.7215 43.175 44.2144C43.2198 44.2776 43.3004 44.3046 43.3743 44.2821C48.0179 42.8456 52.7265 40.6784 57.5875 37.1087C57.6301 37.0772 57.6569 37.0298 57.6614 36.9779C58.8464 24.7193 55.6767 14.0708 49.2589 4.63106C49.2432 4.59952 49.2164 4.57695 49.1851 4.56342ZM20.0666 30.5193C17.2664 30.5193 14.9592 27.9486 14.9592 24.7915C14.9592 21.6343 17.2217 19.0636 20.0666 19.0636C22.9338 19.0636 25.2187 21.6569 25.1739 24.7915C25.1739 27.9486 22.9114 30.5193 20.0666 30.5193ZM38.9502 30.5193C36.1502 30.5193 33.8429 27.9486 33.8429 24.7915C33.8429 21.6343 36.1053 19.0636 38.9502 19.0636C41.8175 19.0636 44.1023 21.6569 44.0576 24.7915C44.0576 27.9486 41.8175 30.5193 38.9502 30.5193Z" fill="black"/>
</g>
<defs>
<clipPath id="clip0_401_3240">
<rect width="58" height="45" fill="white" transform="translate(0.745483 0.0422363)"/>
</clipPath>
</defs>
</svg>
