<svg width="28" height="55" viewBox="0 0 28 55" fill="none" xmlns="http://www.w3.org/2000/svg">
<path d="M5.5482 28.0837C5.66548 28.1781 5.77684 28.2797 5.88168 28.3878C8.0725 30.8881 10.263 33.3925 12.4531 35.9009C12.7055 36.1878 12.7228 36.3935 12.4217 36.655C12.0264 36.9977 11.6544 37.3646 11.2895 37.7437C10.0832 38.9793 9.6575 40.4522 10.0984 42.1196C10.5455 43.8094 11.6605 44.894 13.3421 45.3511C15.1363 45.8377 17.1767 45.0349 18.1265 43.5063C19.2233 41.7436 19.0996 39.6767 17.7403 38.1441C14.669 34.6825 11.5713 31.2452 8.48978 27.7917C6.85984 25.9672 5.17517 24.1821 3.63139 22.2836C0.113027 17.9574 -0.198163 11.5552 2.79513 6.85591C5.97696 1.86168 11.6889 -0.473765 17.4555 0.861206C22.8481 2.11002 27.1003 6.84171 27.743 12.3154C28.2498 16.6558 27.0334 20.4246 24.0219 23.6104C23.8354 23.8132 23.7289 24.1335 23.6955 24.4133C23.5941 25.2627 23.5505 26.1182 23.4745 27.0933C23.3291 26.9804 23.1897 26.86 23.0569 26.7325C20.8127 24.2541 18.5786 21.7656 16.3192 19.3004C15.9695 18.9173 15.9897 18.6791 16.3597 18.3506C16.8298 17.9393 17.274 17.4992 17.6896 17.0329C19.2101 15.3006 19.1148 12.6215 17.4869 10.951C16.7028 10.1401 15.6406 9.65648 14.5142 9.59742C13.3877 9.53837 12.2808 9.9083 11.4162 10.6327C9.6423 12.1198 9.31286 14.8404 10.7705 16.6548C11.8064 17.9432 12.9529 19.1433 14.0547 20.3779C17.7038 24.4751 21.4898 28.4648 24.9869 32.6897C30.5619 39.4294 28.0278 49.7605 20.0535 53.368C11.8216 57.0942 2.30757 51.9489 0.996926 43.0106C0.359343 38.6519 1.56152 34.8153 4.60043 31.5949C4.94405 31.231 5.04238 30.8215 5.10725 30.3664C5.20861 29.6639 5.32214 28.9645 5.43466 28.2651C5.44581 28.2134 5.48839 28.1759 5.5482 28.0837Z" fill="black"/>
</svg>
