<svg width="574" height="113" viewBox="0 0 574 113" fill="none" xmlns="http://www.w3.org/2000/svg">
<path d="M571.034 26.4273H563.068V18.5485H519.338H517.781H474.564H473.963H436.113H421.399H406.417V18.9992H406.196V19.4457H405.971V19.8964H405.75V20.3471H405.528V20.7936H405.307V21.2443H405.082V21.695H404.861V22.1415H404.64V22.5922H404.594V18.5485H381.733H374.981H336.447V18.9992H336.355V19.4457H336.263V19.8964H336.171V20.3471H336.079V20.7936H335.988V21.2443H335.896V21.695H335.804V22.1415H335.712V22.5922H335.616V23.0429H335.524V23.4936H335.433V23.9401H335.341V24.3908H335.249V24.8415H335.157V25.2881H335.065V25.7388H334.974V26.1895H334.882V26.4273H328.568V26.8613H328.489V27.2995H328.413V27.7335H328.334V28.1675H328.255V28.6015H328.18V29.0355H328.1V29.4737H328.025V29.9077H327.946V30.3417H327.871V30.7757H327.792V31.2097H327.717V31.6437H327.637V32.0819H327.562V32.5159H327.483V32.9499H327.404V33.3839H327.328V33.8179H327.249V34.2561H327.174V34.6901H327.095V35.1241H327.02V35.5581H326.94V35.9921H326.865V36.4303H326.786V36.8643H326.707V37.2983H326.632V37.7323H326.552V38.1663H326.477V38.6003H326.398V39.0385H326.323V39.4725H326.243V39.9065H326.168V40.3405H326.089V40.7745H326.014V41.2085H325.935V41.6467H325.86V42.0181H316.182V42.4229H316.128V42.8277H316.074V43.2325H316.019V43.6372H315.965V44.0462H315.911V44.451H315.857V44.8558H315.802V45.2606H315.748V45.6696H315.694V46.0743H315.64V46.4791H315.585V46.8839H315.531V47.2887H315.477V47.6977H315.423V48.1025H315.368V48.5073H315.314V48.9121H315.26V49.321H315.206V49.7258H315.151V49.8969H314.358V2.87427H284.75V18.5485H233.913H233.225H214.763V18.1896H214.621V17.7097H214.475V17.234H214.333V16.754H214.191V16.2741H214.045V15.7984H213.903V15.3185H213.761V14.8386H213.619V14.3629H213.473V13.8829H213.332V13.403H213.19V12.9273H213.048V12.4474H212.902V11.9675H212.76V11.4876H212.618V11.0118H212.472V10.5319H212.33V10.052H212.188V9.57629H212.046V9.09638H211.9V8.61647H211.758V8.14074H211.616V7.66083H211.47V7.18092H211.328V6.70519H211.187V6.22528H211.045V5.74537H210.899V5.26546H210.757V4.78973H210.615V4.30982H210.473V3.82991H210.327V3.35418H210.185V2.87427H180.66V5.74537H180.531V5.26546H180.331V4.78973H180.13V4.30982H179.93V3.82991H179.73V3.35418H179.529V2.87427H134.243V10.7531H126.364V18.5485H106.128V18.1896H105.77V17.7097H105.411V17.234H105.052V16.754H104.693V16.2741H104.334V15.7984H103.979V15.3185H103.62V14.8386H103.261V14.3629H102.903V13.8829H102.544V13.403H102.185V12.9273H101.83V12.4474H101.471V11.9675H101.112V11.4876H100.753V11.0118H100.395V10.5319H100.04V10.052H99.6809V9.57629H99.322V9.09638H98.9632V8.61647H98.6043V8.14074H98.2454V7.66083H97.8907V7.18092H97.5318V6.70519H97.1729V6.22528H96.814V5.74537H96.4551V5.26546H96.1004V4.78973H95.7415V4.30982H95.3826V3.82991H95.0237V3.35418H94.6649V2.87427H71.9798H65.0524H42.3674V5.26546H42.2088V4.78973H41.7498V4.30982H41.2907V3.82991H40.8275V3.35418H40.3726V2.87427H10.8437V10.7531H2.96484V79.4217H3.49483V79.7597H4.02481V80.0936H4.55063V80.4316H5.08061V80.7654H5.6106V81.1035H6.13641V81.4373H6.6664V81.7753H7.19638V82.1092H7.72637V82.4472H8.25218V82.7811H8.78217V83.1191H9.31215V83.4529H9.84214V83.7909H10.3679V84.129H10.8979V84.4628H11.4279V84.8008H11.9579V85.1347H12.4837V85.4727H13.0137V85.8066H13.5437V86.1446H14.0695V86.4784H14.5995V86.8165H15.1295V87.1503H15.6595V87.4883H16.1853V87.8222H16.7153V88.1602H17.2452V88.4982H17.7752V88.8321H18.301V89.1659H18.831V89.5039H19.361V89.842H19.8868V90.1758H20.4168V90.5138H20.9468V90.8477H21.4768V91.1857H22.0068V91.5196H22.5326V91.8576H23.0626V92.1914H23.5925V92.5294H24.1184V92.8675H24.6483V93.2013H25.1783V93.5352H25.7083V93.8732H26.2341V94.2112H26.7641V94.5451H27.2941V94.8831H27.8199V95.2169H28.3499V95.555H28.8799V95.8888H29.4099V96.2268H29.9399V96.5607H56.7354V89.5081H63.9132V89.842H64.3514V90.1758H64.7937V90.5138H65.236V90.8477H65.6742V91.1857H66.1166V91.5196H66.5589V91.8576H66.9971V92.1914H67.4395V92.5294H67.8818V92.8675H68.32V93.2013H68.7623V93.5352H69.2005V93.8732H69.6429V94.2112H70.0852V94.5451H70.5234V94.8831H70.9657V95.2169H71.4081V95.555H71.8463V95.8888H72.2886V96.2268H72.731V96.5607H86.1308H99.4514H99.61H112.931H141.617H147.726H168.416V94.2112H168.625V94.5451H168.867V94.8831H169.105V95.2169H169.347V95.555H169.585V95.8888H169.827V96.2268H170.069V96.5607H196.944V94.8831H197.077V95.2169H197.261V95.555H197.444V95.8888H197.628V96.2268H197.812V96.5607H231.197H238.954H279.317V89.5081H284.963H286.528H292.095V96.5607H331.752H333.079H372.736V96.2268H372.911V95.8888H373.091V95.555H373.266V95.2169H373.441V94.8831H373.621V94.5451H373.759V96.5607H408.633H414.743H435.433V96.2268H435.742V95.8888H436.046V95.555H436.351V95.2169H436.656V94.8831H436.96V94.5451H437.086V96.5607H449.075V103.693H456.207V110.749H497.274V110.44H497.704V110.132H498.138V109.827H498.572V109.522H499.002V109.214H499.436V108.905H499.866V108.6H500.3V108.291H500.734V107.987H501.168V107.678H501.598V107.373H502.032V107.064H502.462V106.76H502.896V106.451H503.33V106.146H503.764V105.838H504.193V105.529H504.627V105.224H505.057V104.915H505.491V104.611H505.925V104.302H506.359V103.997H506.789V103.688H507.223V103.384H507.653V103.075H508.087V102.77H508.521V102.461H508.951V102.153H509.385V101.848H509.819V101.539H510.253V101.235H510.683V100.926H511.117V100.621H511.546V100.312H511.98V100.008H512.414V99.6989H512.848V99.39H513.278V99.0854H513.712V98.7766H514.142V98.472H514.576V98.1632H515.01V97.8585H515.444V97.5497H515.874V97.2451H516.308V96.9363H516.738V96.6316H517.172V96.5607H536.852V96.2268H537.365V95.8888H537.879V95.555H538.392V95.2169H538.905V94.8831H539.423V94.5451H539.936V94.2112H540.449V93.8732H540.963V93.5352H541.476V93.2013H541.989V92.8675H542.507V92.5294H543.02V92.1914H543.533V91.8576H544.047V91.5196H544.56V91.1857H545.077V90.8477H545.591V90.5138H546.104V90.1758H546.617V89.842H547.131V89.5039H547.644V89.1659H548.161V88.8321H548.675V88.4982H549.188V88.1602H549.701V87.8222H550.214V87.4883H550.732V87.1503H551.245V86.8165H551.759V86.4784H552.272V86.1446H552.785V85.8066H553.303V85.4727H553.816V85.1347H554.329V84.8008H554.842V84.4628H555.356V84.129H555.869V83.7909H556.387V83.4529H556.9V83.1191H557.413V82.7811H557.926V82.4472H558.44V82.1092H558.953V81.7753H559.47V81.4373H559.984V81.1035H560.497V80.7654H561.01V80.4316H561.524V80.0936H562.037V79.7597H562.554V79.4217H563.068V76.801H563.101V76.4504H563.631V76.0999H564.157V75.7494H564.687V75.3988H565.217V75.0483H565.747V74.6977H566.273V74.3472H566.803V73.9966H567.333V73.6461H567.863V73.2956H568.388V72.945H568.918V72.5945H569.448V72.2439H569.974V71.8934H570.504V71.5429H571.034V26.4273Z" fill="black" stroke="white" stroke-width="4.17311" stroke-miterlimit="10"/>
<path d="M13.3975 68.989V21.1901H21.2763V13.3071H29.9355V21.1901H37.9062V36.8644H44.8335V21.1901H52.8V13.3071H61.5635V21.1901H69.3547V68.989H60.6788V22.054H53.6638V37.6406H45.6974V61.1978H37.0382V37.6406H29.0717V22.054H22.161V68.989H13.3975Z" fill="white"/>
<path d="M75.4893 22.0538V13.2903H84.2528V22.0538H75.4893ZM75.4893 68.9888V28.9812H84.2528V68.9888H75.4893Z" fill="white"/>
<path d="M90.3789 68.9888V60.3296H121.815V53.3146H98.2619V45.4358H90.3789V36.8642H98.2619V28.9812H130.662V37.6404H99.1257V44.572H122.683V52.4508H130.662V61.2143H122.683V69.0055L90.3789 68.9888Z" fill="white"/>
<path d="M136.797 68.989V21.1901H144.676V13.3071H169.097V21.1901H177.063V29.8494H168.22V22.054H145.544V36.8644H177.063V68.9973H168.22V45.4359H145.544V68.989H136.797Z" fill="white"/>
<path d="M198.888 68.989V61.1978H191.093V37.6406H183.214V28.9813H191.093V13.3071H199.752V28.9813H223.48V37.6406H199.752V60.3298H222.612V52.4509H231.376V61.2145H223.48V69.0057L198.888 68.989Z" fill="white"/>
<path d="M235.774 68.9888V60.3296H267.21V53.3146H243.657V45.4358H235.774V36.8642H243.657V28.9812H276.045V37.6404H244.521V44.572H268.078V52.4508H276.045V61.2143H268.078V69.0055L235.774 68.9888Z" fill="white"/>
<path d="M303.061 68.989V61.1978H295.183V13.3071H303.946V60.3298H326.635V52.4509H335.47V61.2145H327.483V69.0057L303.061 68.989Z" fill="white"/>
<path d="M346.88 68.9888V61.1976H339.001V36.8642H346.88V28.9812H371.301V36.8642H379.267V61.1976H371.301V68.9888H346.88ZM347.748 60.3296H370.433V37.6404H347.748V60.3296Z" fill="white"/>
<path d="M393.297 68.9888V61.1976H385.414V28.9812H394.178V60.3296H416.867V28.9812H425.701V61.1976H417.731V68.9888H393.297Z" fill="white"/>
<path d="M431.831 68.9888V28.9812H464.131V36.8642H472.097V68.9972H463.259V37.6404H440.574V68.9888H431.831Z" fill="white"/>
<path d="M484.396 84.6631V76.8719H476.518V68.2085H485.281V75.9997H508.058V61.1976H484.417V53.3146H476.538V36.8642H484.417V28.9812H508.926V36.8642H516.805V76.8719H508.926V84.6631H484.396ZM485.26 52.4508H508.037V37.6404H485.26V52.4508Z" fill="white"/>
<path d="M528.214 68.9888V61.1976H520.335V36.8642H528.214V28.9812H552.635V36.8642H560.601V45.4358H551.767V37.6404H529.082V44.572H544.839V53.3355H529.082V60.3505H551.767V52.3506H560.601V61.1142H552.635V68.993L528.214 68.9888Z" fill="white"/>
</svg>
