<svg width="446" height="93" viewBox="0 0 446 93" fill="none" xmlns="http://www.w3.org/2000/svg">
<rect x="0.378906" y="0.565674" width="445.244" height="92.4382" fill="black"/>
<mask id="path-2-outside-1_34_2" maskUnits="userSpaceOnUse" x="3.44727" y="4.67065" width="437" height="82" fill="black">
<rect fill="white" x="3.44727" y="4.67065" width="437" height="82"/>
<path fill-rule="evenodd" clip-rule="evenodd" d="M427.949 10.6707H16.5004V14.0891H9.44727V77.6389H16.5004V81.0571H427.949V77.6389H435.003V14.0891H427.949V10.6707Z"/>
</mask>
<path fill-rule="evenodd" clip-rule="evenodd" d="M427.949 10.6707H16.5004V14.0891H9.44727V77.6389H16.5004V81.0571H427.949V77.6389H435.003V14.0891H427.949V10.6707Z" fill="white"/>
<path d="M16.5004 10.6707V5.2295H11.0593V10.6707H16.5004ZM427.949 10.6707H433.391V5.2295H427.949V10.6707ZM16.5004 14.0891V19.5302H21.9416V14.0891H16.5004ZM9.44727 14.0891V8.64792H4.00611V14.0891H9.44727ZM9.44727 77.6389H4.00611V83.08H9.44727V77.6389ZM16.5004 77.6389H21.9416V72.1977H16.5004V77.6389ZM16.5004 81.0571H11.0593V86.4983H16.5004V81.0571ZM427.949 81.0571V86.4983H433.391V81.0571H427.949ZM427.949 77.6389V72.1977H422.508V77.6389H427.949ZM435.003 77.6389V83.08H440.444V77.6389H435.003ZM435.003 14.0891H440.444V8.64792H435.003V14.0891ZM427.949 14.0891H422.508V19.5302H427.949V14.0891ZM16.5004 16.1118H427.949V5.2295H16.5004V16.1118ZM21.9416 14.0891V10.6707H11.0593V14.0891H21.9416ZM9.44727 19.5302H16.5004V8.64792H9.44727V19.5302ZM14.8884 77.6389V14.0891H4.00611V77.6389H14.8884ZM16.5004 72.1977H9.44727V83.08H16.5004V72.1977ZM21.9416 81.0571V77.6389H11.0593V81.0571H21.9416ZM427.949 75.616H16.5004V86.4983H427.949V75.616ZM422.508 77.6389V81.0571H433.391V77.6389H422.508ZM435.003 72.1977H427.949V83.08H435.003V72.1977ZM429.562 14.0891V77.6389H440.444V14.0891H429.562ZM427.949 19.5302H435.003V8.64792H427.949V19.5302ZM422.508 10.6707V14.0891H433.391V10.6707H422.508Z" fill="#FF4400" mask="url(#path-2-outside-1_34_2)"/>
</svg>
