<svg width="153" height="43" viewBox="0 0 153 43" fill="none" xmlns="http://www.w3.org/2000/svg">
<path d="M20.3186 2.09583C21.3784 2.72774 22.2917 3.57781 22.998 4.58962C23.0925 5.28954 23.3332 5.96174 23.7045 6.5625L24.0787 8.01447L24.414 11.0262C24.4867 11.6924 24.6108 12.352 24.7853 12.9991V16.0527C24.9455 17.1957 25.1815 18.3269 25.4918 19.4386V20.1451C26.204 19.3013 26.7477 18.3288 27.0934 17.2801L27.4647 17.0945L27.8419 16.376L27.9916 15.8551L28.3628 15.2953C29.0395 14.5649 29.5817 13.7207 29.9644 12.8015L30.3357 12.4662L30.671 11.7237L32.4672 9.92748L32.8384 9.77779L33.2097 9.40656L33.3594 9.03534C33.9494 8.91772 34.5076 8.67585 34.9969 8.32582L36.2244 8.14021L36.9309 7.80491H37.4907C37.7066 8.26993 38.0118 8.688 38.3889 9.03534C38.4489 9.46851 38.5615 9.89275 38.7242 10.2987V15.1456L38.5745 15.4809V17.2771L38.3889 17.834C38.386 18.7884 38.2541 19.738 37.9967 20.6571V21.9234L37.6614 23.3365C37.6608 24.6604 37.5365 25.9814 37.2902 27.2822V27.9888L37.1045 28.5456C37.2374 29.4826 37.2995 30.4284 37.2902 31.3747L35.8741 34.0541L35.5029 34.4283L35.3173 34.8026C35.1915 34.8265 35.0808 34.9373 34.982 35.1379C34.6392 35.2092 34.2902 35.2463 33.9401 35.2486C32.7757 35.227 31.6408 34.8784 30.665 34.2427C30.4866 33.5882 30.399 32.9123 30.4045 32.2339C30.4096 31.4703 30.4969 30.7095 30.665 29.9646V28.1684L30.8506 25.8602L31.0362 25.489V21.9204L31.4104 20.1242L31.2218 19.2261C28.8268 23.4173 27.4507 28.3071 27.0934 33.8954C26.294 34.7968 25.6377 35.8155 25.1475 36.9161C24.584 37.0333 24.0106 37.0964 23.4351 37.1047C21.4013 37.1047 20.3595 36.1487 20.3096 34.2367C20.24 32.566 20.066 30.9012 19.7887 29.2521V28.6923L19.6031 28.1714C19.6252 27.2142 19.5772 26.2566 19.4594 25.3064L19.2917 24.2256V23.4443C19.2816 22.6863 19.1565 21.9343 18.9205 21.2139V20.6571C18.9356 19.7441 18.8052 18.8346 18.5343 17.9627V16.7353C18.3594 16.0278 18.0549 15.3589 17.6362 14.7624L17.265 16.0287L16.9327 17.4538V18.5345C16.9327 19.3508 16.6971 20.8387 16.2261 22.9982V30.1443L16.3758 30.6652V31.222L16.747 32.4525V33.9014C15.9537 34.7058 15.3413 35.6704 14.9508 36.7305C14.556 36.805 14.155 36.8421 13.7533 36.8413C12.6401 36.8254 11.538 36.6168 10.4961 36.2246C10.3493 35.2826 10.0457 34.3719 9.59796 33.5302L9.07705 31.734L8.89144 31.213L8.52021 30.8418C8.41611 29.861 8.04199 28.9283 7.43947 28.1474V27.6505L7.10716 27.0936L6.92155 26.3841L6.55033 25.8632L6.40064 25.1208L6.02941 24.2226C5.52593 23.0803 4.79095 22.0548 3.87092 21.2109V20.6571L3.53562 20.3218V17.9627C2.88688 16.5216 2.35138 15.0322 1.93396 13.508C1.69556 13.0595 1.50875 12.5855 1.37713 12.095L1.04183 11.574V10.8286L0.6706 10.4933V9.78677C0.259601 8.89931 0.0315333 7.93817 0 6.96067C0 4.75128 1.58769 3.31229 4.76306 2.64368L5.5085 3.35021C5.75262 4.75851 6.1647 6.13247 6.73594 7.44266C6.76328 7.97337 6.95824 8.48173 7.29278 8.89463V9.41555L7.44246 9.93646L7.81369 10.4933L8.00229 11.3914L8.33759 11.9123C8.55162 13.3695 9.04352 14.7721 9.78657 16.0437C9.87903 17.3518 10.3736 18.5992 11.2026 19.6153L11.7595 17.2711L11.9091 16.7502L12.2744 14.7744L12.46 14.2534L12.6456 13.3553L12.7953 12.7955L13.6934 9.22395L13.879 8.88865L14.2503 7.43668L15.1484 5.46379L15.4837 4.94288C16.7473 3.76322 18.2794 2.9093 19.9474 2.45508L20.3186 2.09583Z" fill="#FFF36D"/>
<path d="M52.6213 1.71252C53.7848 1.962 54.653 2.70645 55.2258 3.94586C54.5821 4.64439 54.0085 5.40446 53.5134 6.21513L53.1422 6.55043C52.9001 7.03501 52.6134 7.49604 52.286 7.92755C51.0794 8.53459 49.9222 9.23528 48.8252 10.0232L48.6755 10.3585C48.1575 10.5358 47.6865 10.8286 47.2984 11.2147L46.7775 11.4003L46.4032 11.7236C45.8222 12.1576 45.1833 12.5083 44.5052 12.7655L44.0232 13.2864L41.9276 13.4361C41.3868 13.8495 40.8002 14.1991 40.1792 14.4779L38.9817 15.1844L38.6464 15.5197C38.5237 15.5437 38.4009 15.6544 38.2752 15.855C37.6643 16.1677 36.9886 16.3328 36.3023 16.337C35.5644 16.3267 34.8362 16.1668 34.1618 15.867C34.1101 15.6717 34.0849 15.4703 34.0869 15.2682C34.0914 15.0062 34.1164 14.745 34.1618 14.4869C34.9567 13.8391 35.6615 13.088 36.2574 12.2535C36.7308 11.9919 37.1904 11.7061 37.6345 11.3973L37.9698 11.2117C38.5158 10.7598 39.102 10.359 39.7212 10.0142L40.0535 9.64297L41.251 8.63707L41.7719 8.45146L42.1461 7.93054L43.6699 7.07433L44.1909 6.73903C44.7299 6.47238 45.2518 6.17243 45.7536 5.84091L46.7954 5.17031L47.3163 4.98469L49.5497 3.42196C50.3577 2.85714 51.2325 2.39458 52.1542 2.04483L52.6213 1.71252ZM46.7775 16.7471C47.8452 16.8709 48.7633 17.5046 49.5317 18.6482V19.5044C48.5101 20.9113 47.9752 22.6129 48.0079 24.3513C48.0096 24.9261 48.0587 25.4999 48.1546 26.0667C48.1306 28.6034 49.1605 30.6791 51.2441 32.2937L51.4297 33.8594C50.8458 34.4674 50.379 35.1778 50.0526 35.955L49.1964 36.2903L49.0108 36.6256L49.1964 37.1495C46.2027 37.421 43.8955 35.8054 42.2749 32.3027C41.3496 30.3176 40.8675 28.155 40.8618 25.9649C40.8821 23.9899 41.2468 22.0336 41.9396 20.184C42.6081 19.7966 43.1908 19.2771 43.652 18.6572C44.5402 18.2743 45.3579 17.745 46.0709 17.0914H46.5918L46.7775 16.7471Z" fill="#FFF36D"/>
<path d="M58.7254 5.43372C59.9791 5.54658 61.2017 5.88747 62.3329 6.43962L63.71 6.62523L64.5303 6.84677L65.7278 7.22099H66.3265L66.9612 7.44252C67.6977 7.40459 68.436 7.46703 69.1556 7.62813H69.9759L72.1494 8.03828H72.9308L73.9456 8.85557C73.6463 11.1648 72.2492 13.2245 69.7544 15.0347C69.2025 15.1368 68.6422 15.1869 68.0809 15.1844C66.8796 15.1728 65.6854 14.9996 64.5303 14.6694H62.3329L60.7342 15.0407H59.9139C60.3636 15.7882 60.9896 16.4141 61.7371 16.8639C62.3359 17.0634 62.9935 17.3239 63.71 17.6452L65.126 18.2619L65.7248 18.4475H66.3235L67.545 18.8607L67.9521 19.0493L68.5509 19.2708L70.3471 19.6421L70.9459 20.0522L71.9518 20.2378L72.5835 20.4623L74.5444 20.6569L75.3617 21.2557C73.5654 27.4827 69.7574 32.7716 63.9375 37.1226C63.3236 37.1115 62.7126 37.0362 62.1143 36.898C61.8114 36.2637 61.6094 35.5859 61.5156 34.8892L63.5244 32.2817L63.71 31.6829C64.7727 30.6325 65.653 29.4123 66.3146 28.0725L66.5391 26.2762C65.7708 25.8717 64.9416 25.5956 64.0842 25.4589C59.0707 24.5388 54.4064 22.07 50.0914 18.0524C50.2651 15.7432 51.6043 13.8082 54.109 12.2475C53.6408 11.384 53.3612 10.4309 53.2888 9.45133C54.1566 8.85557 54.9016 8.09834 55.4832 7.22099C55.5623 7.23018 55.6424 7.21746 55.7147 7.18419C55.787 7.15093 55.8488 7.09841 55.8933 7.03238C56.6003 6.77898 57.2747 6.44231 57.9021 6.02947L58.3123 5.84386L58.7254 5.43372Z" fill="#FFF36D"/>
<path d="M97.5754 4.09251C97.7282 4.40553 97.8051 4.75013 97.7999 5.09841C97.7912 5.49259 97.7153 5.88239 97.5754 6.25101C96.5121 7.1448 95.6603 8.26341 95.0816 9.52617L94.4499 10.3075L94.3002 10.6428C93.2345 11.8403 92.3413 13.453 91.6208 15.4807L91.4741 15.7801L91.3244 18.5703V19.0553C91.7124 19.5998 91.9321 20.2462 91.9561 20.9144C91.7058 21.6698 91.5883 22.4629 91.6089 23.2585L91.4622 23.5938C90.8705 24.3589 90.1074 24.9742 89.2343 25.3902C88.3612 25.8062 87.4025 26.0113 86.4357 25.9888C86.087 25.9892 85.7388 25.9641 85.3938 25.914L84.4269 24.2015C84.4494 24.1207 84.4472 24.035 84.4205 23.9555C84.3938 23.876 84.3439 23.8063 84.2772 23.7555C84.3031 19.9634 85.3948 16.1174 87.5523 12.2176C86.2857 12.5259 85.0789 13.0419 83.9808 13.7444C83.882 13.7204 83.7682 13.7803 83.6455 13.93C83.5467 13.906 83.4479 13.9539 83.3461 14.0797L82.2654 14.379L81.9301 14.7143H81.3313C81.3074 14.8131 81.1966 14.9149 80.999 15.0137C80.9586 15.8092 81.0714 16.605 81.3313 17.3578C81.3734 18.0348 81.4736 18.7068 81.6307 19.3666V19.8516L82.1127 20.9294C82.1713 21.8741 82.4381 22.7942 82.8941 23.6237L83.1934 24.8512V25.3362L83.9748 27.1953L84.1245 27.6443L84.2712 28.1263L84.6065 28.4257L84.9058 29.6891L85.0525 30.1741C85.4507 30.198 85.8489 30.21 86.25 30.21C88.8506 30.1901 91.4205 29.6464 93.8063 28.6113L94.884 28.4257L95.2193 28.276C95.7292 28.8776 96.3648 29.36 97.0814 29.6891C97.0545 29.7909 97.1054 29.8897 97.2281 29.9885V30.1741C96.7987 30.6153 96.3385 31.0255 95.851 31.4015C94.6219 31.647 93.419 32.0089 92.2585 32.4823H91.8094L91.3274 32.8176L89.127 33.2307L86.9685 33.7127C87.1681 34.6308 87.7389 36.0278 88.681 37.9039L88.8307 38.2033L89.4623 39.32C89.7215 39.5642 89.8805 39.8961 89.9084 40.251C88.4455 41.8876 87.0693 42.7069 85.78 42.7089C84.0417 42.7089 82.454 41.2699 81.017 38.3919C81.32 37.6893 81.5323 36.9508 81.6487 36.1945C81.234 35.7433 80.917 35.2112 80.7176 34.6318H72.7482C72.1095 34.2437 71.5735 33.7078 71.1855 33.069C71.2045 32.42 71.3692 31.7836 71.6675 31.2069C72.7342 30.9967 73.8196 30.8963 74.9067 30.9075C75.7749 30.9075 76.7179 30.9574 77.7358 31.0572L78.3675 30.8716L78.9992 30.7219C78.8192 30.0704 78.5566 29.4446 78.2178 28.8598C78.1475 28.4095 77.9833 27.9791 77.7358 27.5964V27.1474L77.4364 26.848V26.2373L76.5054 24.1896V23.7435L76.3407 23.1118L76.0414 22.4771L75.742 20.9144L75.5564 20.4683L74.6253 17.774L74.3259 16.6932C74.3579 16.1993 74.2411 15.7071 73.9906 15.2802V13.7324C74.6151 12.9945 75.3577 12.3653 76.1881 11.8703C76.6818 11.8067 77.1603 11.6556 77.6011 11.4242C79.1119 11.4761 80.9351 10.9552 83.0707 9.86147C84.4293 9.49376 85.6966 8.84738 86.7919 7.96343H87.2769L87.4266 7.66406C87.5254 7.68801 87.6362 7.64011 87.7589 7.51437L89.9174 6.3977L90.4024 6.09833C90.6 5.97259 91.1209 5.56544 91.9651 4.86789C92.0639 4.89484 92.1627 4.83197 92.2645 4.68228C93.1068 4.47393 93.9021 4.10827 94.6086 3.60453C95.6184 3.59341 96.6224 3.75854 97.5754 4.09251Z" fill="#FFF36D"/>
<path d="M108.778 1.71252C109.941 1.962 110.81 2.70645 111.382 3.94586C110.739 4.64439 110.165 5.40446 109.67 6.21513L109.299 6.55043C109.055 7.03435 108.769 7.49527 108.443 7.92755C107.236 8.53459 106.079 9.23528 104.982 10.0232L104.832 10.3585C104.314 10.5352 103.843 10.8281 103.455 11.2147L102.934 11.4003L102.563 11.7356C101.981 12.169 101.343 12.5196 100.665 12.7774L100.18 13.2983L98.0842 13.448C97.5434 13.8614 96.9568 14.211 96.3358 14.4899L95.1383 15.1964L94.803 15.5317C94.6459 15.5929 94.519 15.7133 94.4498 15.867C93.8389 16.1797 93.1631 16.3448 92.4769 16.349C91.732 16.3374 90.9974 16.1734 90.3184 15.867C90.2667 15.6717 90.2415 15.4703 90.2435 15.2682C90.248 15.0062 90.273 14.745 90.3184 14.4869C91.1133 13.8391 91.8181 13.088 92.414 12.2535C92.8874 11.9919 93.347 11.7061 93.7911 11.3973L94.1264 11.2117C94.6713 10.7598 95.2565 10.3589 95.8748 10.0142L96.2101 9.64297L97.4076 8.63707L97.9285 8.45146L98.2997 7.93054L99.8265 7.07433L100.347 6.73903C100.886 6.47238 101.408 6.17243 101.91 5.84091L102.952 5.17031L103.473 4.98469L105.679 3.42495C106.487 2.86014 107.362 2.39757 108.284 2.04782L108.778 1.71252ZM102.934 16.7471C104 16.8709 104.918 17.5046 105.688 18.6482V19.5044C104.666 20.911 104.13 22.6126 104.161 24.3513C104.164 24.9262 104.214 25.4999 104.311 26.0667C104.287 28.6034 105.317 30.6791 107.401 32.2937L107.586 33.8594C107.001 34.4666 106.534 35.1772 106.209 35.955L105.353 36.2903L105.167 36.6256L105.353 37.1495C102.359 37.421 100.052 35.8054 98.4314 32.3027C97.5062 30.3176 97.0241 28.155 97.0184 25.9649C97.0387 23.9899 97.4034 22.0336 98.0961 20.184C98.7647 19.7966 99.3474 19.2771 99.8086 18.6572C100.696 18.2736 101.514 17.7444 102.228 17.0914H102.748L102.934 16.7471Z" fill="#FFF36D"/>
<path d="M120.573 0.000244141C121.505 0.216417 122.372 0.65041 123.103 1.2666C123.13 1.5132 123.143 1.76105 123.142 2.00905C123.144 2.73534 123.009 3.45549 122.744 4.13162V5.58359L122.558 5.95481L122.409 7.18225C122.439 8.02973 122.376 8.87794 122.223 9.71197L122.037 10.9783V12.574C121.796 13.3957 121.671 14.2473 121.666 15.1037V18.5346L124.902 18.1603C125.028 18.1873 125.151 18.1244 125.274 17.9747H125.795C125.994 18 126.195 17.9463 126.354 17.825H127.621C128.438 17.6426 129.277 17.58 130.112 17.6394L130.671 17.4538H131.57L132.65 18.3519C132.458 19.7152 131.955 21.0161 131.18 22.154C130.934 22.1759 130.696 22.2493 130.48 22.3695C130.265 22.4896 130.077 22.6539 129.929 22.8515C128.655 22.7975 127.383 22.974 126.172 23.3725C125.68 23.2991 125.177 23.3634 124.72 23.5581H123.642L121.669 24.1149C121.642 24.4382 121.63 24.7855 121.63 25.1567C121.65 26.432 121.787 27.7028 122.04 28.9528V30.0335C122.029 30.1343 122.04 30.2363 122.072 30.3324C122.104 30.4286 122.156 30.5166 122.226 30.5904V31.2969L122.412 31.8567L122.747 32.192V32.7489L122.933 33.0842V33.641C121.935 35.9482 120.62 37.1028 118.99 37.1048C117.92 37.1048 116.717 36.6058 115.379 35.6079C114.903 33.8976 114.542 32.1574 114.299 30.3988C114.076 29.0323 113.952 27.6517 113.927 26.2674V25.7166C113.545 25.6655 113.16 25.6405 112.775 25.6417C111.521 25.6597 110.278 25.8728 109.089 26.2734C108.293 26.2132 107.493 26.3277 106.745 26.6087H106.039C105.379 26.2843 104.806 25.8084 104.366 25.2199C103.926 24.6314 103.631 23.947 103.506 23.2228C104.065 22.7995 104.667 22.4372 105.302 22.142L112.149 20.5044C112.244 20.5144 112.34 20.5029 112.431 20.4707C112.521 20.4386 112.603 20.3867 112.67 20.3188L113.601 20.1332C113.812 18.7668 113.874 17.3816 113.787 16.0018L113.601 15.6665L113.787 15.1097C113.763 14.5888 113.701 13.99 113.601 13.3135V9.90058L113.763 9.34074L113.912 8.26299V5.95481L114.284 5.02376V4.12563L114.805 2.15275L117.523 0.898369L117.894 0.712757L118.415 0.563069C118.924 0.446347 119.413 0.256782 119.867 0.000244141L120.573 0.000244141Z" fill="#FFF36D"/>
<path d="M135.422 5.43372C136.677 5.54616 137.901 5.88706 139.033 6.43962L140.41 6.62523L141.227 6.84677L142.425 7.22099H143.023L143.655 7.44252C144.393 7.40469 145.132 7.46713 145.853 7.62813H146.67L148.864 8.03828H149.646L150.652 8.85557C150.354 11.1628 148.952 13.2225 146.445 15.0347C145.893 15.1368 145.333 15.1869 144.772 15.1844C143.573 15.172 142.38 14.9988 141.227 14.6694H139.033L137.431 15.0407H136.614C137.062 15.7895 137.688 16.4159 138.437 16.8639C139.036 17.0644 139.688 17.3249 140.41 17.6452L141.823 18.2619L142.422 18.4475H143.02L144.248 18.8547L144.658 19.0433L145.257 19.2648L147.053 19.6361L147.652 20.0462L148.658 20.2318L149.289 20.4564L151.262 20.642L152.083 21.2407C150.286 27.4677 146.477 32.7567 140.655 37.1076C140.042 37.0965 139.43 37.0213 138.832 36.8831C138.532 36.2477 138.33 35.5703 138.233 34.8743L140.245 32.2667L140.431 31.6679C141.494 30.6175 142.374 29.3973 143.035 28.0575L143.257 26.2612C142.489 25.8563 141.66 25.5802 140.802 25.4439C135.791 24.5239 131.126 22.055 126.809 18.0374C126.983 15.7282 128.323 13.7933 130.83 12.2325C130.361 11.3706 130.081 10.4182 130.01 9.43935C130.879 8.84522 131.624 8.0877 132.204 7.20901C132.283 7.21855 132.363 7.20598 132.436 7.17268C132.508 7.13939 132.57 7.08668 132.614 7.0204C133.321 6.76761 133.996 6.4309 134.623 6.0175L135.033 5.83188L135.422 5.43372Z" fill="#FFF36D"/>
</svg>
