<svg width="415" height="106" viewBox="0 0 415 106" fill="none" xmlns="http://www.w3.org/2000/svg">
<path d="M414.8 41.9509H406.449V17.075H381.299V0.461548H350.005V1.2533H349.435V2.04504H348.864V2.83679H348.289V3.62854H347.718V4.42029H347.148V5.21203H346.573V6.00378H346.002V6.79553H345.427V7.58728H344.857V8.37903H344.286V9.17077H343.711V9.96252H343.14V10.7543H342.57V11.546H341.995V12.3378H341.424V13.1295H340.854V13.9213H340.279V14.713H339.708V15.5048H339.137V16.2965H338.562V17.075H313.563V0.461548H289.514H282.176H258.127V1.2533H257.924V2.04504H257.72V2.83679H257.517V3.62854H257.313V4.42029H257.11V5.21203H256.911V6.00378H256.703V6.79553H256.504V7.58728H256.3V8.37903H256.097V8.8125H256.013V0.461548H224.719V1.2533H224.648V2.04504H224.582V2.83679H224.511V3.62854H224.44V4.42029H224.374V5.21203H224.303V6.00378H224.237V6.79553H224.166V7.58728H224.095V8.37903H224.029V8.8125H216.368V9.57328H216.333V10.3296H216.293V11.086H216.257V11.8468H216.222V12.6032H216.187V13.3639H216.151V14.1203H216.116V14.8811H216.08V15.6375H216.045V16.3938H216.01V17.1546H215.974V17.911H215.939V18.6717H215.903V19.4281H215.868V20.1845H215.833V20.9453H215.797V21.7016H215.762V22.4624H215.727V23.2188H215.691V23.9751H215.656V24.7359H215.62V25.4923H215.585V26.2531H215.55V27.0094H215.514V27.7658H215.479V28.5266H215.443V29.2829H215.404V30.0437H215.368V30.8001H215.333V31.5609H215.297V32.3172H215.262V33.0736H215.227V33.8344H215.191V34.5907H215.156V35.3515H215.121V36.1079H215.085V36.8643H215.05V37.625H215.014V38.3814H214.979V39.1422H214.944V39.8986H214.908V40.6549H214.873V41.4157H214.837V41.9509H209.844V17.075H186.529V16.2965H186.436V15.5048H186.343V14.713H186.255V13.9213H186.162V13.1295H186.069V12.3378H185.981V11.546H185.888V10.7543H185.795V9.96252H185.706V9.17077H185.614V8.37903H185.521V7.58728H185.428V6.79553H185.339V6.00378H185.246V5.21203H185.154V4.42029H185.065V3.62854H184.972V2.83679H184.879V2.04504H184.786V1.2533H184.698V0.461548H153.404V17.075H145.049H104.205V19.2512H103.847V18.5258H103.427V17.8004H103.006V17.075H70.7305V16.3938H70.1555V15.6375H69.5849V14.8811H69.0144V14.1203H68.4393V13.3639H67.8688V12.6032H67.2982V11.8468H66.7231V11.086H66.1526V10.3296H65.582V9.57328H65.007V8.8125H62.6229V8.37903H62.0169V7.58728H61.4109V6.79553H60.8049V6.00378H60.199V5.21203H59.593V4.42029H58.987V3.62854H58.381V2.83679H57.7751V2.04504H57.1691V1.2533H56.5631V0.461548H8.56286V8.8125H0.211914V81.5958H1.04347V82.0602H1.87503V82.5291H2.70658V82.9935H3.54256V83.4579H4.37412V83.9268H5.20568V84.3912H6.03723V84.8557H6.86879V85.3245H7.70034V85.789H8.53632V86.2534H9.36788V86.7223H10.1994V87.1867H11.031V87.6511H11.8625V88.12H12.6985V88.5844H13.5301V89.0488H14.3616V89.5177H15.1932V89.9821H16.0248V90.4466H16.8563V90.9154H17.6879V91.3799H18.5238V91.8443H19.3554V92.3131H20.187V92.7776H21.0185V93.242H21.8501V93.7109H22.6816V94.1753H23.5176V94.6441H24.3492V95.1086H25.1807V95.573H26.0123V96.0419H26.8438V96.5063H27.6754V96.9707H28.5114V97.4396H29.3429V97.904H30.1745V98.3685H31.006V98.8373H31.8376V99.3018H32.6691V99.7662H33.5051V100.235H34.3367V100.699H35.1682V101.164H35.9998V101.633H36.8314V102.097H37.6629V102.562H38.4989V103.03H39.3304V103.495H40.162V103.959H40.9936V104.428H41.8251V104.893H42.6567V105.357H67.6166V92.1451H69.0895V92.3131H69.7044V92.7776H70.3148V93.242H70.9252V93.7109H71.54V94.1753H72.1504V94.6441H72.7652V95.1086H73.3756V95.573H73.9904V96.0419H74.6008V96.5063H75.2112V96.9707H75.826V97.4396H76.4364V97.904H77.0513V98.3685H77.6617V98.8373H78.2765V99.3018H78.8869V99.7662H79.4973V100.235H80.1121V100.699H80.7225V101.164H81.3373V101.633H81.9477V102.097H82.5625V102.562H83.1729V103.03H83.7833V103.495H84.3981V103.959H85.0085V104.428H85.6234V104.893H86.2338V105.357H118.718H124.406H163.529V98.7887H164.48H168.474V98.8373H168.655V99.3018H168.841V99.7662H169.027V100.235H169.208V100.699H169.394V101.164H169.575V101.633H169.761V102.097H169.947V102.562H170.128V103.03H170.314V103.495H170.5V103.959H170.681V104.428H170.867V104.893H171.048V105.357H209.366V104.893H209.375V104.428H209.384V103.959H209.397V103.495H209.406V103.03H209.415V102.562H209.424V102.097H209.432V101.633H209.441V101.164H209.45V100.699H209.459V100.235H209.472V99.7662H209.481V99.3018H209.49V98.8373H209.499V98.7887H214.55V105.357H239.51V104.893H239.674V104.428H239.833V103.959H239.996V103.495H240.156V103.03H240.319V102.562H240.483V102.097H240.642V101.633H240.801V101.164H240.965V100.699H241.129V100.235H241.288V99.7662H241.452V99.3018H241.611V98.8373H241.775V98.7887H254.407V105.357H266.885H277.983H279.292H291.845H302.943V104.893H303.42V104.428H303.902V103.959H304.385V103.495H304.477V105.357H327.398H329.508H365.712V104.893H366.512V104.428H367.313V103.959H368.109V103.495H368.91V103.03H369.706V102.562H370.507V102.097H371.307V101.633H372.103V101.164H372.904V100.699H373.7V100.235H374.501V99.7662H375.297V99.3018H376.097V98.8373H376.898V98.3685H377.694V97.904H378.495V97.4396H379.291V96.9707H380.092V96.5063H380.888V96.0419H381.688V95.573H382.489V95.1086H383.285V94.6441H384.086V94.1753H384.882V93.7109H385.682V93.242H386.483V92.7776H387.279V92.3131H388.08V91.8443H388.876V91.3799H389.677V90.9154H390.477V90.4466H391.273V89.9821H392.074V89.5177H392.87V89.0488H393.671V88.5844H394.467V88.12H395.268V87.6511H396.068V87.1867H396.864V86.7223H397.665V86.2534H398.461V85.789H399.262V85.3245H400.062V84.8557H400.858V84.3912H401.659V83.9268H402.455V83.4579H403.256V82.9935H404.052V82.5291H404.853V82.0602H405.653V81.5958H406.449V78.3271H406.48V77.8273H407.312V77.3274H408.143V76.8276H408.975V76.3278H409.806V75.8324H410.642V75.3326H411.474V74.8328H412.306V74.3329H413.137V73.8331H413.969V73.3333H414.8V41.9509Z" fill="black"/>
<path d="M11.2695 70.5377V19.8747H19.6205V11.5193H45.5049V19.8747H53.9487V45.5733H45.5049V53.9242H20.5582V70.5377H11.2695ZM20.5582 44.6533H44.607V20.7903H20.5582V44.6533Z" fill="#FFF36D"/>
<path d="M66.0638 70.5379V62.2798H57.7129V36.4883H66.0638V28.1329H91.9482V36.4883H100.392V62.2798H91.9482V70.5379H66.0638ZM67.0016 61.3598H91.0503V37.311H67.0016V61.3598Z" fill="#FFF36D"/>
<path d="M106.911 70.5379V61.3598H140.226V53.9244H115.262V45.5735H106.911V36.4883H115.262V28.1329H149.59V37.311H116.182V44.6535H141.146V53.0089H149.59V62.2975H141.146V70.5556L106.911 70.5379Z" fill="#FFF36D"/>
<path d="M172.715 70.5377V62.2796H164.462V37.3108H156.106V28.1327H164.462V11.5193H173.64V28.1327H198.812V37.3108H173.64V61.3596H197.87V53.0086H207.159V62.2973H198.812V70.5554L172.715 70.5377Z" fill="#FFF36D"/>
<path d="M227.425 70.5377V19.8747H235.776V11.5193H244.954V19.8747H253.398V36.4881H260.736V19.8747H269.184V11.5193H278.473V19.8747H286.735V70.5377H277.544V20.7903H270.104V37.3108H261.66V62.2796H252.482V37.3108H244.034V20.7903H236.691V70.5377H227.425Z" fill="#FFF36D"/>
<path d="M293.233 20.7905V11.5018H302.522V20.7905H293.233ZM293.233 70.5379V28.133H302.522V70.5379H293.233Z" fill="#FFF36D"/>
<path d="M307.18 70.5379V28.1329H341.415V36.4883H349.863V70.5467H340.504V37.311H316.468V70.5379H307.18Z" fill="#FFF36D"/>
<path d="M369.325 70.5377V62.2796H361.063V37.3108H352.712V28.1327H361.063V11.5193H370.241V28.1327H395.391V37.3108H370.241V61.3596H394.475V53.0086H403.742V62.2973H395.391V70.5554L369.325 70.5377Z" fill="#FFF36D"/>
</svg>
